<svg width="512" height="512" viewBox="0 0 512 512" fill="none" xmlns="http://www.w3.org/2000/svg">
<path d="M176 256C140.656 256 112 227.344 112 192C112 176.856 117.288 162.96 126.08 152H56C47.176 152 40 159.176 40 168V376C40 384.824 47.176 392 56 392H276C281.008 392 285.8 389.608 288.8 385.6L308 360H408C416.824 360 424 352.824 424 344V256H176Z" fill="#F0BC5E"/>
<path d="M504 208C504 179.944 483.256 156.64 456 152.632C456 152.424 456 152.216 456 152C456 103.48 416.52 64 368 64C362.584 64 357.232 64.672 351.952 65.648C337.112 31.76 303.296 8 264 8C211.064 8 168 51.064 168 104C168 109.384 168.504 114.728 169.384 120H48C25.944 120 8 137.944 8 160V384C8 406.056 25.944 424 48 424H152V456H144C121.944 456 104 473.944 104 496V504H360V496C360 473.944 342.056 456 320 456H312V424H416C438.056 424 456 406.056 456 384V263.36C483.096 259.456 504 236.152 504 208ZM342.632 488H121.368C124.672 478.688 133.568 472 144 472H320C330.432 472 339.328 478.688 342.632 488ZM296 456H168V424H296V456ZM416 408H48C34.768 408 24 397.232 24 384V160C24 146.768 34.768 136 48 136H130.848C114.496 149.208 104 169.392 104 192C104 231.696 136.304 264 176 264H440V384C440 397.232 429.232 408 416 408ZM448 248H176C145.12 248 120 222.88 120 192C120 161.12 145.12 136 176 136C183.264 136 190.336 137.368 197 140.064L203.008 125.232C197.512 123.008 191.792 121.568 185.96 120.76C184.776 115.264 184 109.68 184 104C184 59.888 219.888 24 264 24C308.112 24 344 59.888 344 104H360C360 96.024 358.912 88.32 357.072 80.904C360.68 80.352 364.32 80 368 80C407.696 80 440 112.304 440 152C440 154.44 439.872 156.84 439.632 159.216L439.152 168H448C470.056 168 488 185.944 488 208C488 230.056 470.056 248 448 248Z" fill="white"/>
<path d="M408 376H424V392H408V376Z" fill="white"/>
<path d="M344 376H392V392H344V376Z" fill="white"/>
<path d="M312 376H328V392H312V376Z" fill="white"/>
<path d="M320 152H336V216H320V152Z" fill="white"/>
<path d="M136 296H152V360H136V296Z" fill="white"/>
<path d="M168 296H184V360H168V296Z" fill="white"/>
<path d="M200 296H216V360H200V296Z" fill="white"/>
<path d="M224 152H208C199.176 152 192 159.176 192 168V200C192 208.824 199.176 216 208 216H224C232.824 216 240 208.824 240 200V168C240 159.176 232.824 152 224 152ZM208 200V168H224L224.008 200H208Z" fill="white"/>
<path d="M288 152H272C263.176 152 256 159.176 256 168V200C256 208.824 263.176 216 272 216H288C296.824 216 304 208.824 304 200V168C304 159.176 296.824 152 288 152ZM272 200V168H288L288.008 200H272Z" fill="white"/>
<path d="M104 296H88C79.176 296 72 303.176 72 312V344C72 352.824 79.176 360 88 360H104C112.824 360 120 352.824 120 344V312C120 303.176 112.824 296 104 296ZM88 344V312H104L104.008 344H88Z" fill="white"/>
<path d="M384 152H368C359.176 152 352 159.176 352 168V200C352 208.824 359.176 216 368 216H384C392.824 216 400 208.824 400 200V168C400 159.176 392.824 152 384 152ZM368 200V168H384L384.008 200H368Z" fill="white"/>
<path d="M376 312H392V328H376V312Z" fill="white"/>
<path d="M344 312H360V328H344V312Z" fill="white"/>
<path d="M312 312H328V328H312V312Z" fill="white"/>
<path d="M264 40V56C290.472 56 312 77.528 312 104H328C328 68.712 299.288 40 264 40Z" fill="white"/>
<path d="M227.424 51.48L236.584 64.608C240.792 61.672 245.4 59.448 250.288 57.992L245.728 42.656C239.192 44.592 233.032 47.56 227.424 51.48V51.48Z" fill="white"/>
<path d="M72 184H88V200H72V184Z" fill="white"/>
<path d="M72 216H88V232H72V216Z" fill="white"/>
<path d="M72 248H88V264H72V248Z" fill="white"/>
</svg>
