<svg id="Layer_5" enable-background="new 0 0 64 64" height="512" viewBox="0 0 64 64" width="512" xmlns="http://www.w3.org/2000/svg"><path d="m22 32c-4.418 0-8-3.582-8-8 0-1.893.661-3.63 1.76-5h-8.76c-1.103 0-2 .897-2 2v26c0 1.103.897 2 2 2h27.5c.626 0 1.225-.299 1.6-.8l2.4-3.2h12.5c1.103 0 2-.897 2-2v-11z" fill="#f0bc5e"/><path d="m63 26c0-3.507-2.593-6.42-6-6.921 0-.026 0-.052 0-.079 0-6.065-4.935-11-11-11-.677 0-1.346.084-2.006.206-1.855-4.236-6.082-7.206-10.994-7.206-6.617 0-12 5.383-12 12 0 .673.063 1.341.173 2h-15.173c-2.757 0-5 2.243-5 5v28c0 2.757 2.243 5 5 5h13v4h-1c-2.757 0-5 2.243-5 5v1h32v-1c0-2.757-2.243-5-5-5h-1v-4h13c2.757 0 5-2.243 5-5v-15.08c3.387-.488 6-3.401 6-6.92zm-20.171 35h-27.658c.413-1.164 1.525-2 2.829-2h22c1.304 0 2.416.836 2.829 2zm-5.829-4h-16v-4h16zm15-6h-46c-1.654 0-3-1.346-3-3v-28c0-1.654 1.346-3 3-3h10.356c-2.044 1.651-3.356 4.174-3.356 7 0 4.962 4.038 9 9 9h33v15c0 1.654-1.346 3-3 3zm4-20h-34c-3.86 0-7-3.14-7-7s3.14-7 7-7c.908 0 1.792.171 2.625.508l.751-1.854c-.687-.278-1.402-.458-2.131-.559-.148-.687-.245-1.385-.245-2.095 0-5.514 4.486-10 10-10s10 4.486 10 10h2c0-.997-.136-1.96-.366-2.887.451-.069.906-.113 1.366-.113 4.962 0 9 4.038 9 9 0 .305-.016.605-.046.902l-.06 1.098h1.106c2.757 0 5 2.243 5 5s-2.243 5-5 5z"/><path d="m51 47h2v2h-2z"/><path d="m43 47h6v2h-6z"/><path d="m39 47h2v2h-2z"/><path d="m40 19h2v8h-2z"/><path d="m17 37h2v8h-2z"/><path d="m21 37h2v8h-2z"/><path d="m25 37h2v8h-2z"/><path d="m28 19h-2c-1.103 0-2 .897-2 2v4c0 1.103.897 2 2 2h2c1.103 0 2-.897 2-2v-4c0-1.103-.897-2-2-2zm-2 6v-4h2l.001 4z"/><path d="m36 19h-2c-1.103 0-2 .897-2 2v4c0 1.103.897 2 2 2h2c1.103 0 2-.897 2-2v-4c0-1.103-.897-2-2-2zm-2 6v-4h2l.001 4z"/><path d="m13 37h-2c-1.103 0-2 .897-2 2v4c0 1.103.897 2 2 2h2c1.103 0 2-.897 2-2v-4c0-1.103-.897-2-2-2zm-2 6v-4h2l.001 4z"/><path d="m48 19h-2c-1.103 0-2 .897-2 2v4c0 1.103.897 2 2 2h2c1.103 0 2-.897 2-2v-4c0-1.103-.897-2-2-2zm-2 6v-4h2l.001 4z"/><path d="m47 39h2v2h-2z"/><path d="m43 39h2v2h-2z"/><path d="m39 39h2v2h-2z"/><path d="m33 5v2c3.309 0 6 2.691 6 6h2c0-4.411-3.589-8-8-8z"/><path d="m28.428 6.435 1.145 1.641c.526-.367 1.102-.645 1.713-.827l-.57-1.917c-.817.242-1.587.613-2.288 1.103z"/><path d="m9 23h2v2h-2z"/><path d="m9 27h2v2h-2z"/><path d="m9 31h2v2h-2z"/></svg>