<svg width="527" height="325" viewBox="0 0 527 325" fill="none" xmlns="http://www.w3.org/2000/svg">
<path d="M490.1 136.6C489.1 119.2 481.6 99.3001 472.3 86.7001C457.7 66.6001 444.7 57.9001 426.4 50.8001C416.6 47.0001 407.7 44.7001 396 44.2001C380.5 43.5001 362.3 45.7001 351.4 49.4001C337.1 53.4001 325.4 61.0001 317.9 66.9001C306.9 75.2001 297.4 85.6001 289.5 98.1001C288.6 99.5001 287.8 100.9 287 102.3C278 115.4 269 130.4 259.3 146.3C247.3 166.2 236.5 184.7 224.2 204.4C194.5 252.1 124.9 255.3 92.8995 208.3C78.3995 187 75.8995 161.3 83.7995 139C89.2995 123.8 99.5995 110.1 114.4 100.5C140.3 83.7001 167.5 83.1001 195 97.4001C196.6 98.2001 198.1 99.3001 199.7 100.1C203.7 102.2 208.3 101.2 210.8 97.3001C215.5 89.8001 220.1 82.3001 224.6 74.7001C224.9 74.1001 225.2 73.5001 225.4 72.9001C226.9 69.1001 225.2 65.1001 221.3 62.6001C201 50.0001 178.8 43.7001 154.9 44.2001C102.9 45.3001 60.0995 78.6001 43.7995 123.8C37.4995 141.4 35.0995 160.7 37.7995 180.7C39.1995 191 41.8995 201 45.8995 210.7C48.3995 216.8 51.2995 222.5 54.6995 227.9C81.0995 270.8 132.6 293.6 182.8 282.3C216.7 274.6 242.8 255.8 260.9 226C282.3 190.8 305.8 146 330.3 113.7C341.1 99.4001 354.5 92.8001 366 89.8001C373.4 88.0001 380.7 87.3001 387 87.2001C401 86.9001 416 91.1001 425.7 98.8001C436.2 107.2 445.1 120.7 447 133.3C449.7 152.1 445.5 167.6 435.6 179.8C430.8 185.7 419.5 196.2 405.1 199.7C398.7 201.2 389.1 201.6 378.4 200.3C373.9 199.5 358 194.3 347.3 181.7C345.9 180.1 341.2 174.8 334.5 166.9C329.9 161.4 321.1 164.7 321.1 171.8L321.2 280.5C321.2 281.7 322 282.8 322.9 283.7C324.9 285.6 327.6 286.6 330.3 286.6C336.8 286.7 351.9 286.8 358.3 286.4C361.6 286.2 364.5 282.6 364.5 279.2L364.4 240.6C386.2 246.2 402.4 243.6 408.6 242.4C458.1 233 493.2 189 490.1 136.6Z" fill="white"/>
<path d="M189.299 216.1C160.199 232.9 122.999 223 106.199 193.9C89.3991 164.8 99.2991 127.6 128.399 110.8L189.299 216.1Z" fill="white"/>
</svg>
