<svg width="771" height="498" viewBox="0 0 771 498" fill="none" xmlns="http://www.w3.org/2000/svg">
<path d="M83.3543 428.08C78.5383 437.6 71.0734 442.42 61.0802 442.42C54.4581 442.42 48.7993 440.13 44.1036 435.672C39.408 431.093 37 425.55 37 418.922C37 412.415 39.408 406.752 44.1036 402.173C48.7993 397.594 54.4581 395.304 61.0802 395.304C66.0166 395.304 70.4714 396.63 74.4446 399.16C78.5383 401.811 81.5483 405.426 83.3543 410.005H77.0935C73.7222 403.619 68.545 400.486 61.3209 400.486C56.1437 400.486 51.8093 402.293 48.1973 405.788C44.5853 409.282 42.7792 413.62 42.7792 418.802C42.7792 423.983 44.5852 428.321 48.0769 431.936C51.6889 435.431 56.0233 437.238 61.2005 437.238C68.545 437.238 73.8426 434.226 76.973 428.08H83.3543V428.08Z" fill="white"/>
<path d="M92.0232 441.335V380.724H97.682V441.335H92.0232Z" fill="white"/>
<path d="M146.324 435.431C141.749 440.13 136.21 442.42 129.829 442.42C123.568 442.42 118.03 440.13 113.454 435.551C108.759 430.972 106.471 425.55 106.471 419.284C106.471 412.777 108.759 407.234 113.214 402.534C117.789 397.835 123.327 395.425 129.709 395.425C136.09 395.425 141.628 397.714 146.203 402.414C150.779 407.113 153.187 412.536 153.187 418.922C153.307 425.309 151.019 430.731 146.324 435.431ZM142.471 405.908C138.979 402.293 134.886 400.486 129.949 400.486C124.893 400.486 120.678 402.293 117.307 406.029C113.936 409.644 112.25 413.982 112.25 419.043C112.25 423.983 113.936 428.201 117.428 431.816C120.919 435.431 125.133 437.238 129.949 437.238C135.006 437.238 139.22 435.431 142.712 431.695C145.963 428.08 147.648 423.742 147.648 418.561C147.528 413.741 145.842 409.403 142.471 405.908Z" fill="white"/>
<path d="M195.568 441.335V434.346H195.447C194.243 436.997 192.197 439.046 189.548 440.371C187.019 441.697 184.25 442.299 181.12 442.299C174.377 442.299 169.32 440.01 165.708 435.551C164.264 433.744 163.18 431.454 162.578 428.683C162.096 426.514 161.856 423.983 161.856 421.091V396.389H167.514V421.091C167.514 426.152 168.478 429.888 170.524 432.659C172.812 435.672 176.304 437.238 181.12 437.238C184.852 437.238 188.103 436.033 190.631 433.623C192.437 431.936 193.762 429.888 194.484 427.478C195.086 425.55 195.327 423.14 195.327 420.248V396.509H200.986V441.335H195.568Z" fill="white"/>
<path d="M251.193 441.335V433.503H251.073C247.099 439.528 241.32 442.42 233.614 442.42C226.872 442.42 221.213 440.13 216.518 435.672C211.822 431.213 209.534 425.55 209.534 418.802C209.534 412.174 211.942 406.511 216.638 402.052C221.334 397.594 226.992 395.425 233.614 395.425C241.2 395.425 246.979 398.317 251.073 404.221H251.193V380.724H256.972V441.335H251.193ZM246.497 405.908C243.006 402.293 238.792 400.486 233.735 400.486C228.437 400.486 224.103 402.293 220.611 405.788C217.12 409.282 215.434 413.741 215.434 419.043C215.434 424.224 217.12 428.562 220.611 432.057C224.103 435.551 228.437 437.238 233.735 437.238C238.792 437.238 243.006 435.431 246.497 431.816C249.989 428.321 251.675 423.983 251.675 418.922C251.675 413.861 249.869 409.523 246.497 405.908Z" fill="white"/>
<path d="M273.708 439.166C273.708 442.42 273.467 444.95 272.865 446.878C272.143 449.409 270.698 451.698 268.771 453.385C266.123 455.675 262.751 456.88 258.899 457V451.337C262.631 451.216 265.159 449.891 266.484 447.119C267.086 446.035 267.447 444.589 267.688 442.902C267.929 441.576 267.929 440.01 267.929 437.961V396.268H273.708V439.166V439.166ZM267.929 390.966V380.603H273.708V390.966H267.929Z" fill="white"/>
<path d="M328.851 420.971H288.036C288.276 425.429 290.082 429.165 293.574 432.418C297.066 435.672 301.039 437.238 305.373 437.238C308.865 437.238 312.116 436.274 315.005 434.467C318.015 432.539 320.183 429.888 321.387 426.634H327.407C325.721 431.334 322.952 435.19 318.858 438.082C314.765 440.974 310.31 442.42 305.373 442.42C298.872 442.42 293.454 440.13 288.878 435.551C284.303 430.972 282.136 425.429 282.136 419.043C282.136 412.656 284.424 407.113 288.878 402.414C293.454 397.714 298.992 395.425 305.373 395.425C311.875 395.425 317.413 397.835 321.989 402.534C326.564 407.234 328.851 412.897 328.851 419.404V420.971ZM322.952 415.789C322.229 411.331 320.183 407.716 317.052 404.824C313.801 401.932 309.949 400.486 305.494 400.486C301.039 400.486 297.186 401.932 293.935 404.824C290.684 407.716 288.758 411.331 288.036 415.789H322.952Z" fill="white"/>
<path d="M348.597 401.691V441.335H342.818V401.691H333.427V396.509H342.818V380.724H348.477V396.509H359.192V401.691H348.597Z" fill="white"/>
<path d="M428.303 435.551C423.607 440.01 417.948 442.299 411.206 442.299C403.62 442.299 397.841 439.287 393.747 433.382H393.627V457H387.968V396.509H393.627V404.342H393.747C397.962 398.317 403.861 395.304 411.206 395.304C417.828 395.304 423.486 397.473 428.182 401.932C432.878 406.39 435.286 412.054 435.286 418.681C435.286 425.429 432.998 431.093 428.303 435.551ZM424.45 405.788C420.958 402.293 416.624 400.486 411.326 400.486C406.269 400.486 402.055 402.293 398.564 405.908C395.072 409.523 393.386 413.861 393.386 418.922C393.386 423.983 395.072 428.201 398.564 431.816C402.055 435.431 406.269 437.238 411.326 437.238C416.624 437.238 420.958 435.551 424.45 432.057C427.941 428.562 429.627 424.224 429.627 419.043C429.627 413.741 427.821 409.282 424.45 405.788Z" fill="white"/>
<path d="M481.881 435.431C477.306 440.13 471.767 442.42 465.386 442.42C459.125 442.42 453.587 440.13 449.011 435.551C444.316 430.972 442.028 425.55 442.028 419.284C442.028 412.777 444.316 407.234 448.771 402.534C453.346 397.835 458.884 395.425 465.266 395.425C471.647 395.425 477.185 397.714 481.76 402.414C486.336 407.113 488.744 412.536 488.744 418.922C488.744 425.309 486.456 430.731 481.881 435.431ZM477.908 405.908C474.416 402.293 470.322 400.486 465.386 400.486C460.329 400.486 456.115 402.293 452.744 406.029C449.373 409.644 447.687 413.982 447.687 419.043C447.687 423.983 449.373 428.201 452.864 431.816C456.356 435.431 460.57 437.238 465.386 437.238C470.443 437.238 474.657 435.431 478.148 431.695C481.399 428.08 483.085 423.742 483.085 418.561C483.085 413.741 481.279 409.403 477.908 405.908Z" fill="white"/>
<path d="M508.369 401.691V441.335H502.71V401.691H493.319V396.509H502.71V380.724H508.369V396.509H519.085V401.691H508.369Z" fill="white"/>
<path d="M569.533 420.971H528.717C528.957 425.429 530.763 429.165 534.255 432.418C537.747 435.672 541.72 437.238 546.054 437.238C549.546 437.238 552.797 436.274 555.686 434.467C558.696 432.539 560.864 429.888 562.068 426.634H568.088C566.402 431.334 563.633 435.19 559.539 438.082C555.446 440.974 550.991 442.42 546.054 442.42C539.553 442.42 534.135 440.13 529.559 435.551C524.984 430.972 522.817 425.429 522.817 419.043C522.817 412.656 525.105 407.113 529.559 402.414C534.135 397.714 539.673 395.425 546.054 395.425C552.556 395.425 558.094 397.835 562.67 402.534C567.245 407.234 569.533 412.897 569.533 419.404V420.971ZM563.753 415.789C563.031 411.331 560.984 407.716 557.854 404.824C554.603 401.932 550.75 400.486 546.295 400.486C541.84 400.486 537.988 401.932 534.737 404.824C531.486 407.716 529.559 411.331 528.837 415.789H563.753Z" fill="white"/>
<path d="M612.034 441.335V416.633C612.034 414.223 611.673 412.054 611.071 410.005C610.348 407.595 609.265 405.788 607.7 404.342C604.93 401.811 601.8 400.486 597.947 400.486C594.215 400.486 590.964 401.811 588.195 404.342C586.75 405.788 585.666 407.595 584.944 409.885C584.342 411.813 583.981 413.982 583.981 416.271V441.335H578.322V396.509H583.981V402.173H584.101C587.111 397.594 591.686 395.304 597.947 395.304C604.208 395.304 609.144 397.353 612.636 401.329C616.007 405.185 617.693 410.246 617.693 416.633V441.335H612.034V441.335Z" fill="white"/>
<path d="M639.245 401.691V441.335H633.586V401.691H624.194V396.509H633.586V380.724H639.245V396.509H649.96V401.691H639.245Z" fill="white"/>
<path d="M656.101 390.966V380.603H661.76V390.966H656.101ZM656.101 441.335V396.509H661.76V441.335H656.101Z" fill="white"/>
<path d="M712.207 441.335V433.503H712.087C708.114 439.528 702.335 442.42 694.629 442.42C687.887 442.42 682.228 440.13 677.532 435.672C672.836 431.213 670.549 425.55 670.549 418.802C670.549 412.174 672.957 406.511 677.652 402.052C682.348 397.594 688.007 395.425 694.629 395.425C702.455 395.425 708.234 398.437 712.087 404.462H712.207V396.63H717.987V441.456H712.207V441.335ZM707.391 405.908C703.9 402.293 699.686 400.486 694.629 400.486C689.331 400.486 684.997 402.293 681.505 405.788C678.014 409.282 676.328 413.741 676.328 419.043C676.328 424.224 678.014 428.562 681.505 432.057C684.997 435.551 689.331 437.238 694.629 437.238C699.686 437.238 703.9 435.431 707.391 431.816C710.883 428.321 712.569 423.983 712.569 418.922C712.569 413.861 710.763 409.523 707.391 405.908Z" fill="white"/>
<path d="M728.341 441.335V380.724H734V441.335H728.341Z" fill="white"/>
<path d="M83.3543 428.08C78.5383 437.6 71.0734 442.42 61.0802 442.42C54.4581 442.42 48.7993 440.13 44.1036 435.672C39.408 431.093 37 425.55 37 418.922C37 412.415 39.408 406.752 44.1036 402.173C48.7993 397.594 54.4581 395.304 61.0802 395.304C66.0166 395.304 70.4714 396.63 74.4446 399.16C78.5383 401.811 81.5483 405.426 83.3543 410.005H77.0935C73.7222 403.619 68.545 400.486 61.3209 400.486C56.1437 400.486 51.8093 402.293 48.1973 405.788C44.5853 409.282 42.7792 413.62 42.7792 418.802C42.7792 423.983 44.5852 428.321 48.0769 431.936C51.6889 435.431 56.0233 437.238 61.2005 437.238C68.545 437.238 73.8426 434.226 76.973 428.08H83.3543V428.08Z" stroke="white" stroke-width="0.5" stroke-miterlimit="10"/>
<path d="M92.0232 441.335V380.724H97.682V441.335H92.0232Z" stroke="white" stroke-width="0.5" stroke-miterlimit="10"/>
<path d="M146.324 435.431C141.749 440.13 136.21 442.42 129.829 442.42C123.568 442.42 118.03 440.13 113.454 435.551C108.759 430.972 106.471 425.55 106.471 419.284C106.471 412.777 108.759 407.234 113.214 402.534C117.789 397.835 123.327 395.425 129.709 395.425C136.09 395.425 141.628 397.714 146.203 402.414C150.779 407.113 153.187 412.536 153.187 418.922C153.307 425.309 151.019 430.731 146.324 435.431ZM142.471 405.908C138.979 402.293 134.886 400.486 129.949 400.486C124.893 400.486 120.678 402.293 117.307 406.029C113.936 409.644 112.25 413.982 112.25 419.043C112.25 423.983 113.936 428.201 117.428 431.816C120.919 435.431 125.133 437.238 129.949 437.238C135.006 437.238 139.22 435.431 142.712 431.695C145.963 428.08 147.648 423.742 147.648 418.561C147.528 413.741 145.842 409.403 142.471 405.908Z" stroke="white" stroke-width="0.5" stroke-miterlimit="10"/>
<path d="M195.568 441.335V434.346H195.447C194.243 436.997 192.197 439.046 189.548 440.371C187.019 441.697 184.25 442.299 181.12 442.299C174.377 442.299 169.32 440.01 165.708 435.551C164.264 433.744 163.18 431.454 162.578 428.683C162.096 426.514 161.856 423.983 161.856 421.091V396.389H167.514V421.091C167.514 426.152 168.478 429.888 170.524 432.659C172.812 435.672 176.304 437.238 181.12 437.238C184.852 437.238 188.103 436.033 190.631 433.623C192.437 431.936 193.762 429.888 194.484 427.478C195.086 425.55 195.327 423.14 195.327 420.248V396.509H200.986V441.335H195.568Z" stroke="white" stroke-width="0.5" stroke-miterlimit="10"/>
<path d="M251.193 441.335V433.503H251.073C247.099 439.528 241.32 442.42 233.614 442.42C226.872 442.42 221.213 440.13 216.518 435.672C211.822 431.213 209.534 425.55 209.534 418.802C209.534 412.174 211.942 406.511 216.638 402.052C221.334 397.594 226.992 395.425 233.614 395.425C241.2 395.425 246.979 398.317 251.073 404.221H251.193V380.724H256.972V441.335H251.193ZM246.497 405.908C243.006 402.293 238.792 400.486 233.735 400.486C228.437 400.486 224.103 402.293 220.611 405.788C217.12 409.282 215.434 413.741 215.434 419.043C215.434 424.224 217.12 428.562 220.611 432.057C224.103 435.551 228.437 437.238 233.735 437.238C238.792 437.238 243.006 435.431 246.497 431.816C249.989 428.321 251.675 423.983 251.675 418.922C251.675 413.861 249.869 409.523 246.497 405.908Z" stroke="white" stroke-width="0.5" stroke-miterlimit="10"/>
<path d="M273.708 439.166C273.708 442.42 273.467 444.95 272.865 446.878C272.143 449.409 270.698 451.698 268.771 453.385C266.123 455.675 262.751 456.88 258.899 457V451.337C262.631 451.216 265.159 449.891 266.484 447.119C267.086 446.035 267.447 444.589 267.688 442.902C267.929 441.576 267.929 440.01 267.929 437.961V396.268H273.708V439.166V439.166ZM267.929 390.966V380.603H273.708V390.966H267.929Z" stroke="white" stroke-width="0.5" stroke-miterlimit="10"/>
<path d="M328.851 420.971H288.036C288.276 425.429 290.082 429.165 293.574 432.418C297.066 435.672 301.039 437.238 305.373 437.238C308.865 437.238 312.116 436.274 315.005 434.467C318.015 432.539 320.183 429.888 321.387 426.634H327.407C325.721 431.334 322.952 435.19 318.858 438.082C314.765 440.974 310.31 442.42 305.373 442.42C298.872 442.42 293.454 440.13 288.878 435.551C284.303 430.972 282.136 425.429 282.136 419.043C282.136 412.656 284.424 407.113 288.878 402.414C293.454 397.714 298.992 395.425 305.373 395.425C311.875 395.425 317.413 397.835 321.989 402.534C326.564 407.234 328.851 412.897 328.851 419.404V420.971ZM322.952 415.789C322.229 411.331 320.183 407.716 317.052 404.824C313.801 401.932 309.949 400.486 305.494 400.486C301.039 400.486 297.186 401.932 293.935 404.824C290.684 407.716 288.758 411.331 288.036 415.789H322.952Z" stroke="white" stroke-width="0.5" stroke-miterlimit="10"/>
<path d="M348.597 401.691V441.335H342.818V401.691H333.427V396.509H342.818V380.724H348.477V396.509H359.192V401.691H348.597Z" stroke="white" stroke-width="0.5" stroke-miterlimit="10"/>
<path d="M428.303 435.551C423.607 440.01 417.948 442.299 411.206 442.299C403.62 442.299 397.841 439.287 393.747 433.382H393.627V457H387.968V396.509H393.627V404.342H393.747C397.962 398.317 403.861 395.304 411.206 395.304C417.828 395.304 423.486 397.473 428.182 401.932C432.878 406.39 435.286 412.054 435.286 418.681C435.286 425.429 432.998 431.093 428.303 435.551ZM424.45 405.788C420.958 402.293 416.624 400.486 411.326 400.486C406.269 400.486 402.055 402.293 398.564 405.908C395.072 409.523 393.386 413.861 393.386 418.922C393.386 423.983 395.072 428.201 398.564 431.816C402.055 435.431 406.269 437.238 411.326 437.238C416.624 437.238 420.958 435.551 424.45 432.057C427.941 428.562 429.627 424.224 429.627 419.043C429.627 413.741 427.821 409.282 424.45 405.788Z" stroke="white" stroke-width="0.5" stroke-miterlimit="10"/>
<path d="M481.881 435.431C477.306 440.13 471.767 442.42 465.386 442.42C459.125 442.42 453.587 440.13 449.011 435.551C444.316 430.972 442.028 425.55 442.028 419.284C442.028 412.777 444.316 407.234 448.771 402.534C453.346 397.835 458.884 395.425 465.266 395.425C471.647 395.425 477.185 397.714 481.76 402.414C486.336 407.113 488.744 412.536 488.744 418.922C488.744 425.309 486.456 430.731 481.881 435.431ZM477.908 405.908C474.416 402.293 470.322 400.486 465.386 400.486C460.329 400.486 456.115 402.293 452.744 406.029C449.373 409.644 447.687 413.982 447.687 419.043C447.687 423.983 449.373 428.201 452.864 431.816C456.356 435.431 460.57 437.238 465.386 437.238C470.443 437.238 474.657 435.431 478.148 431.695C481.399 428.08 483.085 423.742 483.085 418.561C483.085 413.741 481.279 409.403 477.908 405.908Z" stroke="white" stroke-width="0.5" stroke-miterlimit="10"/>
<path d="M508.369 401.691V441.335H502.71V401.691H493.319V396.509H502.71V380.724H508.369V396.509H519.085V401.691H508.369Z" stroke="white" stroke-width="0.5" stroke-miterlimit="10"/>
<path d="M569.533 420.971H528.717C528.957 425.429 530.763 429.165 534.255 432.418C537.747 435.672 541.72 437.238 546.054 437.238C549.546 437.238 552.797 436.274 555.686 434.467C558.696 432.539 560.864 429.888 562.068 426.634H568.088C566.402 431.334 563.633 435.19 559.539 438.082C555.446 440.974 550.991 442.42 546.054 442.42C539.553 442.42 534.135 440.13 529.559 435.551C524.984 430.972 522.817 425.429 522.817 419.043C522.817 412.656 525.105 407.113 529.559 402.414C534.135 397.714 539.673 395.425 546.054 395.425C552.556 395.425 558.094 397.835 562.67 402.534C567.245 407.234 569.533 412.897 569.533 419.404V420.971ZM563.753 415.789C563.031 411.331 560.984 407.716 557.854 404.824C554.603 401.932 550.75 400.486 546.295 400.486C541.84 400.486 537.988 401.932 534.737 404.824C531.486 407.716 529.559 411.331 528.837 415.789H563.753Z" stroke="white" stroke-width="0.5" stroke-miterlimit="10"/>
<path d="M612.034 441.335V416.633C612.034 414.223 611.673 412.054 611.071 410.005C610.348 407.595 609.265 405.788 607.7 404.342C604.93 401.811 601.8 400.486 597.947 400.486C594.215 400.486 590.964 401.811 588.195 404.342C586.75 405.788 585.666 407.595 584.944 409.885C584.342 411.813 583.981 413.982 583.981 416.271V441.335H578.322V396.509H583.981V402.173H584.101C587.111 397.594 591.686 395.304 597.947 395.304C604.208 395.304 609.144 397.353 612.636 401.329C616.007 405.185 617.693 410.246 617.693 416.633V441.335H612.034V441.335Z" stroke="white" stroke-width="0.5" stroke-miterlimit="10"/>
<path d="M639.245 401.691V441.335H633.586V401.691H624.194V396.509H633.586V380.724H639.245V396.509H649.96V401.691H639.245Z" stroke="white" stroke-width="0.5" stroke-miterlimit="10"/>
<path d="M656.101 390.966V380.603H661.76V390.966H656.101ZM656.101 441.335V396.509H661.76V441.335H656.101Z" stroke="white" stroke-width="0.5" stroke-miterlimit="10"/>
<path d="M712.207 441.335V433.503H712.087C708.114 439.528 702.335 442.42 694.629 442.42C687.887 442.42 682.228 440.13 677.532 435.672C672.836 431.213 670.549 425.55 670.549 418.802C670.549 412.174 672.957 406.511 677.652 402.052C682.348 397.594 688.007 395.425 694.629 395.425C702.455 395.425 708.234 398.437 712.087 404.462H712.207V396.63H717.987V441.456H712.207V441.335ZM707.391 405.908C703.9 402.293 699.686 400.486 694.629 400.486C689.331 400.486 684.997 402.293 681.505 405.788C678.014 409.282 676.328 413.741 676.328 419.043C676.328 424.224 678.014 428.562 681.505 432.057C684.997 435.551 689.331 437.238 694.629 437.238C699.686 437.238 703.9 435.431 707.391 431.816C710.883 428.321 712.569 423.983 712.569 418.922C712.569 413.861 710.763 409.523 707.391 405.908Z" stroke="white" stroke-width="0.5" stroke-miterlimit="10"/>
<path d="M728.341 441.335V380.724H734V441.335H728.341Z" stroke="white" stroke-width="0.5" stroke-miterlimit="10"/>
<path d="M659.351 152.497C658.147 131.531 649.117 107.551 637.92 92.3681C620.342 68.1477 604.69 57.6643 582.656 49.1088C570.857 44.5298 560.141 41.7583 546.054 41.1558C527.392 40.3123 505.479 42.9633 492.356 47.4218C475.138 52.2418 461.051 61.3997 452.021 68.5092C438.777 78.5107 427.339 91.0427 417.828 106.105C416.744 107.792 415.781 109.479 414.818 111.166C403.981 126.952 393.145 145.026 381.467 164.186C367.018 188.165 354.015 210.458 339.206 234.196C303.447 291.675 219.648 295.531 181.12 238.896C163.662 213.229 160.652 182.261 170.163 155.389C176.785 137.074 189.187 120.565 207.006 108.997C238.19 88.7532 270.939 88.0302 304.049 105.262C305.975 106.226 307.781 107.551 309.708 108.515C314.524 111.046 320.062 109.841 323.072 105.141C328.731 96.1036 334.269 87.0662 339.687 77.9082C340.049 77.1852 340.41 76.4622 340.651 75.7392C342.457 71.1602 340.41 66.3402 335.714 63.3277C311.273 48.1448 284.544 40.5533 255.768 41.1558C193.16 42.4813 141.628 82.6077 122.003 137.074C114.418 158.281 111.528 181.538 114.779 205.638C116.464 218.049 119.715 230.099 124.531 241.788C127.541 249.138 131.033 256.007 135.127 262.514C166.912 314.208 228.919 341.682 289.36 328.065C330.176 318.787 361.6 296.133 383.393 260.224C409.159 217.808 437.453 163.824 466.951 124.903C479.954 107.672 496.088 99.7186 509.934 96.1036C518.844 93.9346 527.633 93.0911 535.218 92.9706C552.074 92.6091 570.134 97.6701 581.813 106.949C594.455 117.071 605.171 133.338 607.459 148.521C610.71 171.175 605.653 189.852 593.733 204.553C587.954 211.663 574.349 224.315 557.011 228.533C549.305 230.34 537.747 230.822 524.864 229.256C519.446 228.292 500.302 222.026 487.419 206.843C485.734 204.915 480.075 198.528 472.008 189.009C466.469 182.381 455.874 186.358 455.874 194.913L455.995 325.896C455.995 327.342 456.958 328.668 458.041 329.752C460.449 332.042 463.7 333.247 466.951 333.247C474.777 333.367 492.958 333.488 500.663 333.006C504.636 332.765 508.128 328.427 508.128 324.33L508.008 277.817C534.255 284.565 553.76 281.432 561.225 279.986C620.823 268.659 663.204 215.639 659.351 152.497Z" fill="white"/>
<path d="M297.186 248.295C262.149 268.538 217.36 256.609 197.133 221.544C176.906 186.478 188.825 141.652 223.862 121.408L297.186 248.295Z" fill="white"/>
</svg>
