<svg width="512" height="512" viewBox="0 0 512 512" fill="none" xmlns="http://www.w3.org/2000/svg">
<path d="M256 88C213.504 88 172.872 104.056 141.6 133.2L152.504 144.904C174.36 124.536 201.272 111.328 230.088 106.328C216.424 119.144 199.08 139.384 186.184 168H132.256C134.04 165.504 135.808 163 137.752 160.584L125.312 150.528C101.248 180.312 88 217.768 88 256C88 348.64 163.368 424 256 424C298.496 424 339.128 407.944 370.4 378.8L359.496 367.096C337.64 387.464 310.728 400.672 281.912 405.672C295.576 392.856 312.92 372.616 325.816 344H379.744C377.96 346.496 376.192 349 374.248 351.416L386.688 361.472C410.752 331.688 424 294.232 424 256C424 163.36 348.632 88 256 88ZM343.824 248C343.016 223.656 338.616 202.384 332.184 184H389.816C400.2 203.224 406.384 224.96 407.592 248H343.824ZM104.408 264H168.176C168.984 288.344 173.384 309.616 179.816 328H122.184C111.8 308.776 105.616 287.04 104.408 264V264ZM184.352 264H327.648C326.728 288.632 321.832 309.936 314.776 328H197.16C190.128 309.952 185.264 288.648 184.352 264ZM184.352 248C185.272 223.368 190.168 202.064 197.224 184H314.84C321.864 202.048 326.728 223.352 327.648 248H184.352ZM379.704 168H325.816C312.936 139.424 295.624 119.2 281.968 106.384C322.152 113.344 356.92 136.064 379.704 168ZM256.016 105.688C265.576 112.6 289.912 132.76 307.696 168H204.392C222.184 132.848 246.48 112.624 256.016 105.688ZM179.816 184C173.384 202.384 168.976 223.656 168.176 248H104.336C105.496 225.328 111.528 203.664 122.2 184H179.816ZM132.296 344H186.184C199.064 372.576 216.376 392.8 230.032 405.616C189.848 398.656 155.08 375.936 132.296 344V344ZM255.984 406.304C246.424 399.392 222.088 379.232 204.304 344H307.608C289.816 379.152 265.52 399.368 255.984 406.304V406.304ZM332.184 328C338.616 309.616 343.024 288.344 343.824 264H407.664C406.504 286.672 400.472 308.336 389.8 328H332.184Z" fill="white"/>
<path d="M248 216H264V232H248V216Z" fill="white"/>
<path d="M280 216H296V232H280V216Z" fill="white"/>
<path d="M216 216H232V232H216V216Z" fill="white"/>
<path d="M248 280H264V296H248V280Z" fill="white"/>
<path d="M280 280H296V296H280V280Z" fill="white"/>
<path d="M216 280H232V296H216V280Z" fill="white"/>
<path d="M482.888 264C472.816 264 464.224 256.688 462.448 246.624C444.024 142.176 361.056 72 256 72C211.688 72 169.376 87.792 135.952 116.64L177.224 157.912L21.9758 177.32L51.0878 31.776L90.6318 71.32C136.208 30.432 194.632 8 256 8C387.52 8 496.288 110.768 503.608 241.968C503.928 247.696 501.856 253.368 497.92 257.52C493.968 261.696 488.632 264 482.888 264Z" fill="#F0BC5E"/>
<path d="M256 504C124.48 504 15.7119 401.232 8.39189 270.032C8.07189 264.304 10.1439 258.632 14.0799 254.48C18.0319 250.304 23.3679 248 29.1119 248C39.1839 248 47.7759 255.312 49.5519 265.376C67.9759 369.824 150.944 440 256 440C300.312 440 342.624 424.208 376.048 395.36L334.776 354.088L490.024 334.68L460.912 480.224L421.368 440.68C375.792 481.568 317.368 504 256 504V504Z" fill="#F0BC5E"/>
</svg>
