<svg id="Layer_5" enable-background="new 0 0 64 64" height="512" viewBox="0 0 64 64" width="512" xmlns="http://www.w3.org/2000/svg"><path d="m32 11c-5.312 0-10.391 2.007-14.3 5.65l1.363 1.463c2.732-2.546 6.096-4.197 9.698-4.822-1.708 1.602-3.876 4.132-5.488 7.709h-6.741c.223-.312.444-.625.687-.927l-1.555-1.257c-3.008 3.723-4.664 8.405-4.664 13.184 0 11.58 9.421 21 21 21 5.312 0 10.391-2.007 14.3-5.65l-1.363-1.463c-2.732 2.546-6.096 4.197-9.698 4.822 1.708-1.602 3.876-4.132 5.488-7.709h6.741c-.223.312-.444.625-.687.927l1.555 1.257c3.008-3.723 4.664-8.405 4.664-13.184 0-11.58-9.421-21-21-21zm10.978 20c-.101-3.043-.651-5.702-1.455-8h7.204c1.298 2.403 2.071 5.12 2.222 8zm-29.927 2h7.971c.101 3.043.651 5.702 1.455 8h-7.204c-1.298-2.403-2.071-5.12-2.222-8zm9.993 0h17.912c-.115 3.079-.727 5.742-1.609 8h-14.702c-.879-2.256-1.487-4.919-1.601-8zm0-2c.115-3.079.727-5.742 1.609-8h14.702c.878 2.256 1.486 4.919 1.601 8zm24.419-10h-6.736c-1.61-3.572-3.774-6.1-5.481-7.702 5.023.87 9.369 3.71 12.217 7.702zm-15.461-7.789c1.195.864 4.237 3.384 6.46 7.789h-12.913c2.224-4.394 5.261-6.922 6.453-7.789zm-9.525 9.789c-.804 2.298-1.355 4.957-1.455 8h-7.98c.145-2.834.899-5.542 2.233-8zm-5.94 20h6.736c1.61 3.572 3.774 6.1 5.481 7.702-5.023-.87-9.369-3.71-12.217-7.702zm15.461 7.788c-1.195-.864-4.237-3.384-6.46-7.788h12.913c-2.224 4.394-5.261 6.921-6.453 7.788zm9.525-9.788c.804-2.298 1.355-4.957 1.455-8h7.98c-.145 2.834-.899 5.542-2.233 8z"/><path d="m31 27h2v2h-2z"/><path d="m35 27h2v2h-2z"/><path d="m27 27h2v2h-2z"/><path d="m31 35h2v2h-2z"/><path d="m35 35h2v2h-2z"/><path d="m27 35h2v2h-2z"/><g fill="#f0bc5e"><path d="m60.361 33c-1.259 0-2.333-.914-2.555-2.172-2.303-13.056-12.674-21.828-25.806-21.828-5.539 0-10.828 1.974-15.006 5.58l5.159 5.159-19.406 2.426 3.639-18.193 4.943 4.943c5.697-5.111 13-7.915 20.671-7.915 16.44 0 30.036 12.846 30.951 29.246.04.716-.219 1.425-.711 1.944-.494.522-1.161.81-1.879.81z"/><path d="m32 63c-16.44 0-30.036-12.846-30.951-29.246-.04-.716.219-1.425.711-1.944.494-.522 1.161-.81 1.879-.81 1.259 0 2.333.914 2.555 2.172 2.303 13.056 12.674 21.828 25.806 21.828 5.539 0 10.828-1.974 15.006-5.58l-5.159-5.159 19.406-2.426-3.639 18.193-4.943-4.943c-5.697 5.111-13 7.915-20.671 7.915z"/></g></svg>