<svg id="Layer_3" enable-background="new 0 0 64 64" height="512" viewBox="0 0 64 64" width="512" xmlns="http://www.w3.org/2000/svg"><path d="m45.707 14.707-1.414-1.414-4.552 4.552c-1.036-.878-2.225-1.575-3.518-2.063 2.263-1.415 3.777-3.922 3.777-6.782 0-4.411-3.589-8-8-8s-8 3.589-8 8c0 2.86 1.514 5.367 3.777 6.782-4.536 1.714-7.777 6.089-7.777 11.218v7c0 2.757 2.243 5 5 5v3.586l-6.707 6.707 1.414 1.414 5.293-5.293v13.586c0 2.206 1.794 4 4 4 1.2 0 2.266-.542 3-1.382.734.84 1.8 1.382 3 1.382 2.206 0 4-1.794 4-4v-20c2.757 0 5-2.243 5-5v-7c0-2.949-1.074-5.649-2.845-7.741zm-19.707-5.707c0-3.309 2.691-6 6-6s6 2.691 6 6-2.691 6-6 6-6-2.691-6-6zm16 25c0 1.654-1.346 3-3 3v-13h-2v35c0 1.103-.897 2-2 2s-2-.897-2-2v-24h-2v24c0 1.103-.897 2-2 2s-2-.897-2-2v-35h-2v13c-1.654 0-3-1.346-3-3v-7c0-5.514 4.486-10 10-10s10 4.486 10 10z"/><g fill="#f0bc5e"><path d="m12 1v7c2.209 0 4 1.791 4 4 0 .901-.309 1.723-.811 2.392l4.811 3.608.79.593c1.382-1.839 2.21-4.116 2.21-6.593 0-6.075-4.925-11-11-11z"/><path d="m58 1h-9c-2.757 0-5 2.243-5 5v9h14c2.757 0 5-2.243 5-5v-4c0-2.757-2.243-5-5-5z"/><path d="m1 54v4c0 2.757 2.243 5 5 5h9c2.757 0 5-2.243 5-5v-9h-14c-2.757 0-5 2.243-5 5z"/></g><path d="m48 5h11v2h-11z"/><path d="m57 9h2v2h-2z"/><path d="m48 9h7v2h-7z"/><path d="m5 57h11v2h-11z"/><path d="m5 53h2v2h-2z"/><path d="m9 53h7v2h-7z"/><path d="m61 55v-17h-2v17h-2v-15h-2v15h-2v-9h-2v9h-2v-12h-2v12h-2v-10h-2v10h-2v2h22v-2z"/><path d="m61 59h2v2h-2z"/><path d="m41 59h18v2h-18z"/><path d="m20.6 17.2-2.01-1.507-2.084-1.563c.308-.649.494-1.366.494-2.13 0-2.414-1.721-4.434-4-4.899v-5.101-1h-1c-6.065 0-11 4.935-11 11s4.935 11 11 11c3.483 0 6.688-1.606 8.791-4.406l.601-.8zm-5.6-5.2c0 1.654-1.346 3-3 3s-3-1.346-3-3 1.346-3 3-3 3 1.346 3 3zm-3 9c-4.962 0-9-4.038-9-9 0-4.625 3.506-8.446 8-8.945v4.046c-2.279.465-4 2.485-4 4.899 0 2.757 2.243 5 5 5 1.27 0 2.418-.491 3.301-1.274l.277.208 2.969 2.227c-1.697 1.816-4.034 2.839-6.547 2.839z"/></svg>