<svg width="16" height="16" viewBox="0 0 16 16" fill="none" xmlns="http://www.w3.org/2000/svg">
<path d="M8 0C4.63991 0 1.90625 2.73366 1.90625 6.09375C1.90625 8.26287 2.56609 9.13275 5.73691 13.3128C6.28731 14.0384 6.91119 14.8608 7.625 15.8125C7.71353 15.9305 7.85247 16 8.00003 16C8.14759 16 8.2865 15.9305 8.37503 15.8124C9.08466 14.8659 9.70581 14.0466 10.2539 13.3237C13.4323 9.13153 14.0938 8.25912 14.0938 6.09375C14.0938 2.73366 11.3601 0 8 0ZM9.50684 12.7573C9.05672 13.351 8.55737 14.0097 7.99991 14.7507C7.43862 14.0049 6.93644 13.3429 6.48381 12.7462C3.3995 8.68019 2.84375 7.94753 2.84375 6.09375C2.84375 3.25059 5.15684 0.9375 8 0.9375C10.8432 0.9375 13.1562 3.25059 13.1562 6.09375C13.1562 7.94391 12.5991 8.67881 9.50684 12.7573Z" fill="white"/>
<path d="M8 2.8125C6.19072 2.8125 4.71875 4.28447 4.71875 6.09375C4.71875 7.90303 6.19072 9.375 8 9.375C9.80928 9.375 11.2812 7.90303 11.2812 6.09375C11.2812 4.28447 9.80928 2.8125 8 2.8125ZM8 8.4375C6.70766 8.4375 5.65625 7.38609 5.65625 6.09375C5.65625 4.80141 6.70766 3.75 8 3.75C9.29234 3.75 10.3438 4.80141 10.3438 6.09375C10.3438 7.38609 9.29234 8.4375 8 8.4375Z" fill="white"/>
</svg>
