<svg width="2779" height="2676" viewBox="0 0 2779 2676" fill="none" xmlns="http://www.w3.org/2000/svg">
<path fill-rule="evenodd" clip-rule="evenodd" d="M576.487 2200.37C565.078 2210.15 572.141 2215.04 581.92 2219.39C720.459 2246.55 855.738 2228.08 988.301 2186.79C1033.39 2173.21 1078.49 2159.63 1124.12 2148.22C1155.09 2140.61 1187.69 2141.7 1217.57 2152.56C1562.56 2271 1902.66 2260.68 2236.78 2113.45C2373.14 2053.14 2497.56 1967.85 2602.96 1861.9C2604.26 1860.6 2605.47 1859.14 2606.69 1857.66C2610.56 1853 2614.54 1848.19 2621.97 1847.78C2624.36 1851.76 2624.93 1855.73 2624.89 1859.65C2624.92 1861.85 2624.72 1864.08 2624.52 1866.32C2624.33 1868.46 2624.14 1870.61 2624.14 1872.77V2189.51V2190.59C2625.23 2372.05 2479.63 2519.83 2298.17 2521.46H2295.45C2165.06 2522.18 2034.68 2521.94 1904.29 2521.7C1839.09 2521.58 1773.9 2521.46 1708.7 2521.46H923.649C912.783 2520.37 901.917 2519.83 891.052 2519.83C891.026 2519.65 890.998 2519.46 890.969 2519.29C848.601 2519.44 806.276 2519.95 763.983 2520.46C657.889 2521.73 551.994 2523.01 446.098 2518.74C270.616 2512.22 136.423 2364.99 136.423 2188.96C136.423 1999.86 136.544 1810.81 136.665 1621.81C136.906 1243.92 137.148 866.196 136.423 488.469C135.88 294.515 286.914 159.236 461.853 153.803C588.826 150.402 716.062 151.207 843.377 152.012C899.1 152.364 954.838 152.716 1010.58 152.716C1011.18 152.716 1011.81 152.66 1012.44 152.603C1015.19 152.354 1018.04 152.097 1019.81 156.519C1018.99 163.936 1013.48 166.353 1008.02 168.747C1006.28 169.509 1004.54 170.269 1002.97 171.188C895.398 234.21 797.063 309.727 714.483 403.173C577.574 557.467 483.585 735.122 451.531 940.486C395.029 1304.49 508.033 1612.53 765.552 1870.05C811.732 1915.69 817.708 1952.09 780.764 2014.02C736.758 2088.46 669.933 2138.98 598.762 2185.16C591.156 2190.05 583.55 2194.94 576.487 2200.37ZM988.407 1287.18C985.029 1291.76 981.143 1297.04 975.805 1303.95C1003.57 1303.95 1030.7 1303.88 1057.43 1303.82C1109.69 1303.7 1160.37 1303.59 1211.05 1303.95C1254.51 1304.49 1277.87 1322.42 1281.68 1356.65C1286.57 1400.11 1261.57 1428.36 1214.85 1428.9C1148.86 1429.72 1083.17 1429.62 1017.33 1429.51C995.361 1429.48 973.376 1429.45 951.357 1429.45C944.049 1429.45 936.741 1429.53 929.445 1429.62C911.25 1429.85 893.135 1430.07 875.296 1428.9C843.786 1426.73 812.818 1420.75 797.606 1388.16C782.394 1355.56 793.26 1326.22 813.905 1299.6C856.011 1246.36 897.981 1192.98 939.951 1139.6C981.919 1086.22 1023.89 1032.84 1065.99 979.602C1070.88 973.626 1075.77 967.107 1080.66 960.587C1076.9 953.07 1071.22 953.899 1065.83 954.685C1064.21 954.922 1062.61 955.154 1061.1 955.154C1031.76 954.883 1002.29 954.883 972.817 954.883C943.343 954.883 913.87 954.883 884.532 954.611C870.95 955.154 857.368 953.524 844.329 950.265C823.684 945.375 807.385 929.076 801.952 908.432C794.346 877.464 812.818 846.497 843.242 838.891C856.281 835.631 869.864 834.001 883.446 834.001C980.151 833.458 1077.4 833.458 1174.11 834.001C1191.49 832.914 1208.88 835.087 1225.17 839.977C1262.12 853.016 1278.42 886.7 1263.2 922.557C1250.17 954.068 1229.52 980.689 1208.88 1006.77C1137.71 1097.5 1066.53 1187.68 995.363 1277.87C993.07 1280.85 990.874 1283.83 988.407 1287.18ZM1389.79 998.617C1463.14 955.154 1538.11 958.957 1606.02 1018.18C1619.06 1001.33 1632.1 985.578 1655.46 980.689C1697.84 971.996 1738.58 999.704 1739.13 1043.17C1740.21 1151.82 1739.67 1260.47 1739.13 1369.12V1369.14C1739.13 1397.39 1721.2 1422.38 1694.03 1430.53C1666.87 1440.85 1635.9 1432.16 1617.97 1409.34C1608.74 1397.93 1604.93 1395.76 1591.89 1406.08C1542.46 1446.29 1486.5 1453.35 1426.19 1433.79C1329.49 1402.82 1289.28 1327.31 1278.96 1234.95C1268.09 1136.07 1300.69 1050.77 1389.79 998.617ZM2234.06 1444.11C2092.81 1458.24 1980.35 1355.56 1982.52 1219.74C1978.17 1080.11 2069.99 975.799 2199.83 971.996C2338.37 967.65 2439.43 1060.55 2443.77 1196.37C2448.12 1333.83 2363.91 1431.08 2234.06 1444.11ZM1934.83 1026.41C1934.77 1054.78 1934.71 1083.17 1934.71 1111.62C1934.71 1132.67 1934.74 1153.72 1934.78 1174.78C1934.88 1237.93 1934.98 1301.09 1934.17 1364.25C1934.71 1371.31 1933.62 1377.83 1931.99 1384.35C1922.21 1421.84 1883.64 1444.11 1846.15 1433.79C1818.99 1426.73 1798.34 1397.39 1798.34 1363.71V931.793C1798.34 923.261 1798.28 914.79 1798.22 906.339C1798.1 889.497 1797.98 872.735 1798.34 855.732C1798.89 813.899 1825.51 786.735 1865.71 786.191C1907 785.648 1934.71 812.813 1934.71 856.276C1935.07 913.12 1934.95 969.723 1934.83 1026.41Z" fill="#0084FF"/>
<path d="M975.805 1303.95C1057.84 1303.95 1134.99 1303.4 1211.59 1303.95C1254.51 1304.49 1277.87 1322.42 1282.22 1356.64C1287.11 1399.56 1262.12 1428.36 1215.4 1428.9C1127.38 1429.99 1039.91 1429.45 951.9 1429.45C926.366 1429.45 901.374 1430.53 875.84 1428.9C844.329 1427.27 813.361 1420.75 798.149 1388.16C782.937 1355.56 793.803 1326.22 814.448 1299.6C898.115 1193.11 982.324 1086.09 1066.53 979.602C1071.42 973.083 1076.31 966.563 1081.2 960.587C1075.77 951.351 1068.16 955.698 1061.64 955.154C1002.97 954.611 943.751 955.154 885.076 954.611C871.493 954.611 857.911 952.981 844.872 950.265C813.905 943.202 794.89 912.235 801.952 881.81C806.842 861.165 823.141 844.323 843.786 839.434C856.825 836.174 870.407 834.544 883.989 834.544C980.694 834.001 1077.94 834.001 1174.65 834.544C1192.03 834.001 1208.88 836.174 1225.72 840.52C1262.66 853.016 1278.42 887.243 1263.75 923.1C1250.71 954.068 1230.06 980.689 1209.42 1007.31C1138.25 1098.04 1067.08 1188.23 995.907 1277.87C989.93 1284.93 984.498 1291.99 975.805 1303.95V1303.95Z" fill="#0084FF"/>
<path d="M1606.02 1018.18C1619.06 1001.33 1632.64 985.579 1654.92 981.232C1697.84 972.54 1738.04 1000.25 1738.58 1043.71C1740.21 1152.37 1739.67 1261.03 1738.58 1369.68C1738.58 1397.93 1720.11 1422.93 1693.49 1431.08C1666.33 1441.4 1635.36 1433.25 1617.43 1409.89C1608.19 1398.48 1604.39 1396.31 1591.35 1406.63C1541.91 1446.83 1485.95 1453.89 1425.65 1434.34C1328.94 1402.82 1289.28 1327.31 1278.42 1235.49C1267.01 1136.07 1300.15 1051.32 1389.25 999.161C1463.14 955.154 1538.11 958.957 1606.02 1018.18V1018.18ZM1413.7 1216.48C1414.78 1240.38 1422.39 1263.2 1436.51 1282.21C1465.85 1321.33 1521.81 1329.48 1561.47 1300.14C1567.99 1295.25 1573.97 1289.28 1579.4 1282.21C1609.82 1240.92 1609.82 1173.01 1579.4 1131.72C1564.19 1110.54 1540.28 1098.04 1514.75 1097.5C1454.99 1093.69 1413.15 1139.87 1413.7 1216.48V1216.48ZM1982.52 1219.74C1978.17 1080.11 2069.99 975.799 2200.38 971.996C2338.92 967.65 2439.97 1060.55 2444.32 1196.37C2448.66 1333.83 2364.45 1431.08 2234.61 1444.11C2092.81 1458.24 1980.35 1355.56 1982.52 1219.74V1219.74ZM2118.89 1206.7C2117.8 1233.86 2125.95 1260.48 2142.25 1282.76C2172.13 1321.87 2228.09 1329.48 2267.2 1299.06C2273.18 1294.71 2278.07 1289.28 2282.96 1283.84C2314.47 1242.55 2314.47 1173.01 2283.5 1131.72C2268.29 1111.08 2244.38 1098.04 2218.85 1097.5C2160.18 1094.24 2118.89 1138.79 2118.89 1206.7V1206.7ZM1934.71 1111.62C1934.71 1195.83 1935.25 1280.04 1934.71 1364.25C1935.25 1402.82 1904.83 1434.88 1866.26 1435.97C1859.74 1435.97 1852.67 1435.42 1846.15 1433.79C1818.99 1426.73 1798.34 1397.93 1798.34 1363.71V931.793C1798.34 906.258 1797.8 881.267 1798.34 855.732C1798.89 813.899 1825.51 786.735 1865.71 786.735C1907 786.192 1934.71 813.356 1934.71 856.819C1935.25 941.572 1934.71 1026.87 1934.71 1111.62V1111.62Z" fill="#0084FF"/>
<path d="M1413.7 1216.48C1413.15 1139.87 1454.99 1093.69 1514.2 1096.95C1539.74 1098.04 1563.64 1110.54 1578.86 1131.72C1609.28 1172.47 1609.28 1240.92 1578.86 1282.21C1549.52 1321.33 1493.56 1329.48 1453.9 1300.14C1447.38 1295.25 1441.4 1289.28 1435.97 1282.21C1422.39 1263.2 1414.78 1240.38 1413.7 1216.48ZM2118.88 1206.7C2118.88 1139.33 2160.17 1094.24 2218.85 1097.5C2244.38 1098.04 2268.29 1111.08 2283.5 1131.72C2314.47 1173.01 2314.47 1243.1 2282.96 1283.84C2252.53 1322.42 2196.03 1328.94 2157.46 1298.51C2151.48 1294.17 2146.59 1288.73 2142.25 1282.76C2125.95 1260.48 2118.34 1233.86 2118.88 1206.7Z" fill="white"/>
</svg>
