<svg width="16" height="16" viewBox="0 0 16 16" fill="none" xmlns="http://www.w3.org/2000/svg">
<g clip-path="url(#clip0)">
<path d="M15.5889 12.4357L12.9379 9.78466C12.3885 9.23522 11.4992 9.23512 10.9497 9.78466L10.2869 10.4474C9.73863 10.9956 8.84676 10.9956 8.29645 10.4452L5.52076 7.70631C4.97257 7.15812 4.97257 6.26625 5.52076 5.71806L6.18351 5.05531C6.7317 4.50716 6.7317 3.61525 6.18351 3.06706L3.53254 0.416061C2.98435 -0.132126 2.09238 -0.132064 1.54429 0.416061L0.881603 1.07881C0.0213529 1.93903 -0.231647 3.83566 0.221322 6.02847C0.510009 7.426 1.34054 10.1167 3.65945 12.4356C5.97366 14.7499 8.64257 15.5441 10.0275 15.8115C11.5498 16.1055 13.8375 16.1753 14.9261 15.0867L15.5889 14.4239C16.137 13.8757 16.137 12.9838 15.5889 12.4357ZM2.2071 1.07881C2.38985 0.896092 2.6871 0.896061 2.86988 1.07881L5.52088 3.72981C5.70363 3.91256 5.70363 4.20984 5.52088 4.39259L5.19116 4.72231L1.87735 1.40856L2.2071 1.07881ZM10.2052 14.8913C8.9256 14.6442 6.45976 13.9105 4.3222 11.7729C2.17595 9.62659 1.40673 7.13378 1.13923 5.83887C0.784884 4.12362 0.932415 2.83428 1.27648 2.13316L4.56138 5.41809C3.95854 6.32762 4.0576 7.56862 4.86026 8.37125L7.63595 11.1102C8.43629 11.9105 9.67657 12.0102 10.5869 11.4069L13.8744 14.6945C12.8726 15.2025 11.3147 15.1055 10.2052 14.8913ZM14.9262 13.7611L14.5964 14.0909L11.2827 10.7772L11.6124 10.4474C11.7955 10.2643 12.0919 10.2643 12.2751 10.4474L14.9261 13.0984C15.1089 13.2811 15.1089 13.5784 14.9262 13.7611Z" fill="white"/>
<path d="M8.96978 0.00360107C8.71096 0.00360107 8.50115 0.213414 8.50115 0.472226C8.50115 0.731039 8.71096 0.940851 8.96978 0.940851C12.329 0.940851 15.062 3.67382 15.062 7.03307C15.062 7.29188 15.2718 7.50169 15.5306 7.50169C15.7894 7.50169 15.9992 7.29188 15.9992 7.03307C15.9992 3.15701 12.8458 0.00360107 8.96978 0.00360107Z" fill="white"/>
<path d="M8.96978 1.87814C8.71096 1.87814 8.50115 2.08796 8.50115 2.34677C8.50115 2.60558 8.71096 2.81539 8.96978 2.81539C11.2954 2.81539 13.1875 4.70746 13.1875 7.03308C13.1875 7.29189 13.3973 7.50171 13.6561 7.50171C13.9149 7.50171 14.1247 7.29189 14.1247 7.03308C14.1247 4.19064 11.8122 1.87814 8.96978 1.87814Z" fill="white"/>
<path d="M8.96978 3.75266C8.71096 3.75266 8.50115 3.96247 8.50115 4.22128C8.50115 4.48009 8.71096 4.68991 8.96978 4.68991C10.2618 4.68991 11.3129 5.74103 11.3129 7.03306C11.3129 7.29187 11.5227 7.50169 11.7816 7.50169C12.0404 7.50169 12.2502 7.29187 12.2502 7.03306C12.2502 5.22425 10.7786 3.75266 8.96978 3.75266Z" fill="white"/>
<path d="M8.96978 5.6272C8.71096 5.6272 8.50115 5.83701 8.50115 6.09582C8.50115 6.35463 8.71096 6.56445 8.96978 6.56445C9.22818 6.56445 9.4384 6.77467 9.4384 7.03307C9.4384 7.29188 9.64822 7.5017 9.90703 7.5017C10.1658 7.5017 10.3757 7.29188 10.3757 7.03307C10.3757 6.25785 9.745 5.6272 8.96978 5.6272Z" fill="white"/>
</g>
<defs>
<clipPath id="clip0">
<rect width="16" height="16" fill="white"/>
</clipPath>
</defs>
</svg>
