<svg id="Layer_3" enable-background="new 0 0 64 64" height="512" viewBox="0 0 64 64" width="512" xmlns="http://www.w3.org/2000/svg"><path d="m58 1h-36c-2.757 0-5 2.243-5 5v24h2v-24c0-1.654 1.346-3 3-3h36c1.654 0 3 1.346 3 3v24c0 1.654-1.346 3-3 3h-29.419v2h5.499c.488 3.386 3.401 6 6.92 6s6.432-2.614 6.92-6h4.08v1.219l-1.949.486-.534.202-.465 1.143 1.296 2.159-3.139 3.139-2.159-1.296-1.219.496-.612 2.452h-4.438l-.486-1.949-.202-.534-1.082-.439-3.5 1.622.842 1.814 2.236-1.036.63 2.522h7.562l.603-2.415 2.136 1.28 5.346-5.346-1.28-2.136 2.414-.602v-2.781h4c2.757 0 5-2.243 5-5v-24c0-2.757-2.243-5-5-5zm-17 38c-2.414 0-4.434-1.721-4.899-4h9.798c-.465 2.279-2.485 4-4.899 4z"/><path d="m59 29v-22c0-1.103-.897-2-2-2h-34c-1.103 0-2 .897-2 2v22c0 1.103.897 2 2 2h34c1.103 0 2-.897 2-2zm-6 0v-4h4.002v4zm-12-10h4v4h-4zm-2 4h-4v-4h4zm8-4h4v4h-4zm6 0h4.001v4h-4.001zm0-2v-4h4.001v4zm-2 0h-4v-4h4zm-6 0h-4v-4h4zm-6 0h-4v-4h4zm-6 0h-4v-4h4zm-6 0h-4v-4h4zm0 2v4h-4v-4zm2 0h4v4h-4zm4 6v4h-4v-4zm2 0h4v4h-4zm6 0h4v4h-4zm6 0h4v4h-4zm10-18v4h-34v-4zm-34 18h4v4h-4z"/><path d="m18 63c-9.374 0-17-7.626-17-17s7.626-17 17-17 17 7.626 17 17-7.626 17-17 17zm0-29c-6.617 0-12 5.383-12 12s5.383 12 12 12 12-5.383 12-12-5.383-12-12-12z" fill="#f0bc5e"/><path d="m18 33c-7.168 0-13 5.832-13 13s5.832 13 13 13 13-5.832 13-13-5.832-13-13-13zm10.949 14c-.207 2.283-1.111 4.366-2.501 6.034l-1.377-1.377-1.414 1.414 1.377 1.377c-1.667 1.391-3.751 2.294-6.034 2.501v-1.949h-2v1.949c-2.283-.207-4.366-1.111-6.034-2.501l1.377-1.377-1.414-1.414-1.377 1.377c-1.391-1.668-2.294-3.751-2.501-6.034h1.949v-2h-1.949c.207-2.283 1.111-4.366 2.501-6.034l1.377 1.377 1.414-1.414-1.377-1.377c1.667-1.391 3.751-2.294 6.034-2.501v1.949h2v-1.949c2.283.207 4.366 1.111 6.034 2.501l-1.377 1.377 1.414 1.414 1.377-1.377c1.391 1.667 2.294 3.751 2.501 6.034h-1.949v2z"/><path d="m19 41h-2v5.535l3.445 2.297 1.11-1.664-2.555-1.703z"/></svg>