<svg width="512" height="512" viewBox="0 0 512 512" fill="none" xmlns="http://www.w3.org/2000/svg">
<path d="M464 8H176C153.944 8 136 25.944 136 48V240H152V48C152 34.768 162.768 24 176 24H464C477.232 24 488 34.768 488 48V240C488 253.232 477.232 264 464 264H228.648V280H272.64C276.544 307.088 299.848 328 328 328C356.152 328 379.456 307.088 383.36 280H416V289.752L400.408 293.64L396.136 295.256L392.416 304.4L402.784 321.672L377.672 346.784L360.4 336.416L350.648 340.384L345.752 360H310.248L306.36 344.408L304.744 340.136L296.088 336.624L268.088 349.6L274.824 364.112L292.712 355.824L297.752 376H358.248L363.072 356.68L380.16 366.92L422.928 324.152L412.688 307.064L432 302.248V280H464C486.056 280 504 262.056 504 240V48C504 25.944 486.056 8 464 8V8ZM328 312C308.688 312 292.528 298.232 288.808 280H367.192C363.472 298.232 347.312 312 328 312Z" fill="white"/>
<path d="M472 232V56C472 47.176 464.824 40 456 40H184C175.176 40 168 47.176 168 56V232C168 240.824 175.176 248 184 248H456C464.824 248 472 240.824 472 232ZM424 232V200H456.016V232H424ZM328 152H360V184H328V152ZM312 184H280V152H312V184ZM376 152H408V184H376V152ZM424 152H456.008V184H424V152ZM424 136V104H456.008V136H424ZM408 136H376V104H408V136ZM360 136H328V104H360V136ZM312 136H280V104H312V136ZM264 136H232V104H264V136ZM216 136H184V104H216V136ZM216 152V184H184V152H216ZM232 152H264V184H232V152ZM264 200V232H232V200H264ZM280 200H312V232H280V200ZM328 200H360V232H328V200ZM376 200H408V232H376V200ZM456 56V88H184V56H456ZM184 200H216V232H184V200Z" fill="white"/>
<path d="M144 504C69.008 504 8 442.992 8 368C8 293.008 69.008 232 144 232C218.992 232 280 293.008 280 368C280 442.992 218.992 504 144 504ZM144 272C91.064 272 48 315.064 48 368C48 420.936 91.064 464 144 464C196.936 464 240 420.936 240 368C240 315.064 196.936 272 144 272Z" fill="#F0BC5E"/>
<path d="M144 264C86.656 264 40 310.656 40 368C40 425.344 86.656 472 144 472C201.344 472 248 425.344 248 368C248 310.656 201.344 264 144 264ZM231.592 376C229.936 394.264 222.704 410.928 211.584 424.272L200.568 413.256L189.256 424.568L200.272 435.584C186.936 446.712 170.264 453.936 152 455.592V440H136V455.592C117.736 453.936 101.072 446.704 87.728 435.584L98.744 424.568L87.432 413.256L76.416 424.272C65.288 410.928 58.064 394.264 56.408 376H72V360H56.408C58.064 341.736 65.296 325.072 76.416 311.728L87.432 322.744L98.744 311.432L87.728 300.416C101.064 289.288 117.736 282.064 136 280.408V296H152V280.408C170.264 282.064 186.928 289.296 200.272 300.416L189.256 311.432L200.568 322.744L211.584 311.728C222.712 325.064 229.936 341.736 231.592 360H216V376H231.592Z" fill="white"/>
<path d="M152 328H136V372.28L163.56 390.656L172.44 377.344L152 363.72V328Z" fill="white"/>
</svg>
